<svg width="72" height="72" viewBox="0 0 72 72" fill="none" xmlns="http://www.w3.org/2000/svg">
<rect opacity="0.5" x="0.5" y="0.5" width="71" height="71" rx="35.5" stroke="#03A63C"/>
<rect x="5.5" y="5.5" width="61" height="61" rx="30.5" stroke="#03A63C"/>
<path d="M53.0417 50.8671L53.0428 50.8796L53.0451 50.8919C53.0537 50.9378 53.0458 51.0108 53.0064 51.0896C52.9679 51.1666 52.9093 51.2287 52.8441 51.2629L52.844 51.2628L52.8394 51.2654C52.827 51.2722 52.8161 51.2791 52.8062 51.2859C52.787 51.2882 52.7506 51.2919 52.6873 51.2954C52.4402 51.3091 51.8947 51.3176 50.6492 51.3225C48.7966 51.3299 45.4114 51.3296 39.1954 51.3289C37.0744 51.3287 34.6237 51.3284 31.7918 51.3284C31.5648 51.3284 31.3761 51.1343 31.4023 50.8938L31.4025 50.8915C31.6089 48.8272 33.418 47.2857 35.4927 47.4147L35.6402 47.4239L35.724 47.3021C38.3777 43.4436 43.9747 43.229 46.9271 46.8113L47.037 46.9447L47.2027 46.8956C49.9326 46.0866 52.7828 47.9812 53.0417 50.8671Z" stroke="#36414D" stroke-width="0.522156"/>
<path d="M42.5097 38.8909L40.6938 37.075C40.6938 37.0749 40.6938 37.0749 40.6937 37.0749C40.5406 36.9221 40.2923 36.9221 40.1391 37.0749C40.1391 37.0749 40.1391 37.0749 40.139 37.075L37.6766 39.5374C36.5371 40.6769 36.2572 42.3575 36.8388 43.7628C39.1585 42.3169 42.2221 41.9453 45.019 43.1533L45.6182 42.5541L42.5097 38.8909ZM42.5097 38.8909L41.3654 40.0348L41.3654 40.0348C41.0083 40.3919 41.0083 40.9707 41.3654 41.3278C41.7201 41.6825 42.2996 41.6865 42.6583 41.3278C42.6583 41.3278 42.6583 41.3278 42.6583 41.3278L43.8027 40.1838L45.6182 41.9993L42.5097 38.8909ZM45.6183 41.9995C45.771 42.1526 45.771 42.4009 45.6183 42.554V41.9995Z" stroke="#36414D" stroke-width="0.522156"/>
<path d="M53.1904 32.458C52.7577 32.0253 50.8334 30.1009 50.2354 29.503C49.9805 29.248 49.567 29.248 49.312 29.503C49.057 29.758 49.057 30.1714 49.312 30.4264L50.3276 31.442L42.8789 38.8911L43.8026 39.8149L51.2513 32.3658L52.267 33.3814C52.3945 33.5089 52.5616 33.5727 52.7287 33.5727C53.3051 33.5726 53.603 32.8705 53.1904 32.458V32.458Z" fill="#36414D"/>
<path d="M31.0339 21.4578C31.5733 20.7317 32.6603 20.7317 33.1996 21.4578L39.8153 30.364C40.5888 31.4054 39.5902 32.8316 38.3471 32.4611L32.5021 30.7187C32.2507 30.6438 31.9829 30.6438 31.7314 30.7187L25.8864 32.4611C24.6433 32.8316 23.6447 31.4054 24.4183 30.364L31.0339 21.4578Z" fill="#03A63C"/>
<path d="M31.0339 28.2454C31.5733 27.5193 32.6603 27.5193 33.1996 28.2454L39.8153 37.1516C40.5888 38.193 39.5902 39.6192 38.3471 39.2487L32.5021 37.5063C32.2507 37.4314 31.9829 37.4314 31.7314 37.5063L25.8864 39.2487C24.6433 39.6192 23.6447 38.193 24.4183 37.1516L31.0339 28.2454Z" fill="#03A63C"/>
<path d="M31.0339 35.6426C31.5733 34.9165 32.6603 34.9165 33.1996 35.6426L39.8153 44.5488C40.5888 45.5902 39.5902 47.0164 38.3471 46.6459L32.5021 44.9036C32.2507 44.8286 31.9829 44.8286 31.7314 44.9036L25.8864 46.6459C24.6433 47.0164 23.6447 45.5902 24.4183 44.5488L31.0339 35.6426Z" fill="#03A63C"/>
<rect x="30.6152" y="43.5403" width="3.0024" height="8.0499" rx="1.5012" fill="#03A63C"/>
</svg>
