<svg width="72" height="72" viewBox="0 0 72 72" fill="none" xmlns="http://www.w3.org/2000/svg">
<rect opacity="0.5" x="0.5" y="0.5" width="71" height="71" rx="35.5" stroke="#03A63C"/>
<rect x="5.5" y="5.5" width="61" height="61" rx="30.5" stroke="#03A63C"/>
<path d="M24.2617 23.9137V23.9137C24.2617 22.8329 25.1378 21.9568 26.2186 21.9568H27.8049C28.8856 21.9568 29.7617 21.0807 29.7617 20V20M25.6965 25.8705V25.8705C25.6965 25.06 26.3536 24.4029 27.1641 24.4029H29.2397C30.3204 24.4029 31.1965 23.5268 31.1965 22.446V22.446" stroke="#03A63C"/>
<path fill-rule="evenodd" clip-rule="evenodd" d="M23.6302 30.018L23.7753 27.5935H28.0989L28.2682 30.018H23.6302ZM23.5703 31.018H28.338L29.703 50.5647H22.4004L23.5703 31.018Z" fill="#03A63C"/>
<path d="M19 50.0647V52.9999H52V50.0647H49.8478H34.0652H30.2391H21.8696H19Z" fill="#36414C"/>
<path d="M35.9775 46.6403H34.0645V50.0648H49.8471V46.6403H48.1731M35.9775 46.6403H40.7601M35.9775 46.6403V42.482M40.7601 46.6403H43.3905M40.7601 46.6403V42.482M43.3905 46.6403H48.1731M43.3905 46.6403V42.482M48.1731 46.6403V42.482M35.9775 35.3885V33.3769C35.9775 32.0562 37.0481 30.9856 38.3688 30.9856V30.9856M35.9775 35.3885H40.7601M35.9775 35.3885V42.482M40.7601 35.3885V33.3769C40.7601 32.0562 39.6895 30.9856 38.3688 30.9856V30.9856M40.7601 35.3885V42.482M43.3905 35.3885V33.3769C43.3905 32.0562 44.4612 30.9856 45.7818 30.9856V30.9856M43.3905 35.3885H48.1731M43.3905 35.3885V42.482M48.1731 35.3885V33.3769C48.1731 32.0562 47.1025 30.9856 45.7818 30.9856V30.9856M48.1731 35.3885V42.482M35.9775 42.482H40.7601M43.3905 42.482H48.1731M38.3688 30.9856V30.7842C38.3688 29.6796 39.2642 28.7842 40.3688 28.7842H43.7818C44.8864 28.7842 45.7818 29.6796 45.7818 30.7842V30.9856" stroke="#36414C"/>
</svg>
