<svg width="72" height="72" viewBox="0 0 72 72" fill="none" xmlns="http://www.w3.org/2000/svg">
<rect opacity="0.5" x="0.5" y="0.5" width="71" height="71" rx="35.5" stroke="#03A63C"/>
<rect x="5.5" y="5.5" width="61" height="61" rx="30.5" stroke="#03A63C"/>
<path d="M23 23V49.1862C23 49.7385 23.4477 50.1862 24 50.1862H43.1397C43.692 50.1862 44.1397 49.7385 44.1397 49.1862V23C44.1397 22.4477 43.692 22 43.1397 22H24C23.4477 22 23 22.4477 23 23Z" fill="#03A63C"/>
<path d="M25.8184 25.8186V26.6372C25.8184 27.1895 26.2661 27.6372 26.8184 27.6372H40.3208C40.8731 27.6372 41.3208 27.1895 41.3208 26.6372V25.8186C41.3208 25.2663 40.8731 24.8186 40.3208 24.8186H26.8184C26.2661 24.8186 25.8184 25.2663 25.8184 25.8186Z" fill="white"/>
<path d="M40.6161 29.0466H26.523C26.1338 29.0466 25.8184 29.3621 25.8184 29.7513C25.8184 30.1405 26.1338 30.4559 26.523 30.4559H40.6161C41.0053 30.4559 41.3208 30.1405 41.3208 29.7513C41.3208 29.3621 41.0053 29.0466 40.6161 29.0466Z" fill="white"/>
<path d="M40.6161 31.8652H26.523C26.1338 31.8652 25.8184 32.1807 25.8184 32.5699C25.8184 32.9591 26.1338 33.2745 26.523 33.2745H40.6161C41.0053 33.2745 41.3208 32.9591 41.3208 32.5699C41.3208 32.1807 41.0053 31.8652 40.6161 31.8652Z" fill="white"/>
<path d="M40.6161 34.6838H26.523C26.1338 34.6838 25.8184 34.9993 25.8184 35.3885C25.8184 35.7777 26.1338 36.0931 26.523 36.0931H40.6161C41.0053 36.0931 41.3208 35.7777 41.3208 35.3885C41.3208 34.9993 41.0053 34.6838 40.6161 34.6838Z" fill="white"/>
<path d="M40.6161 37.5024H26.523C26.1338 37.5024 25.8184 37.8179 25.8184 38.2071C25.8184 38.5963 26.1338 38.9118 26.523 38.9118H40.6161C41.0053 38.9118 41.3208 38.5963 41.3208 38.2071C41.3208 37.8179 41.0053 37.5024 40.6161 37.5024Z" fill="white"/>
<path d="M40.6161 40.321H26.523C26.1338 40.321 25.8184 40.6365 25.8184 41.0257C25.8184 41.4149 26.1338 41.7304 26.523 41.7304H40.6161C41.0053 41.7304 41.3208 41.4149 41.3208 41.0257C41.3208 40.6365 41.0053 40.321 40.6161 40.321Z" fill="white"/>
<path d="M40.6161 43.1396H26.523C26.1338 43.1396 25.8184 43.4551 25.8184 43.8443C25.8184 44.2335 26.1338 44.549 26.523 44.549H40.6161C41.0053 44.549 41.3208 44.2335 41.3208 43.8443C41.3208 43.4551 41.0053 43.1396 40.6161 43.1396Z" fill="white"/>
<path d="M40.6161 45.9583H26.523C26.1338 45.9583 25.8184 46.2737 25.8184 46.6629C25.8184 47.0521 26.1338 47.3676 26.523 47.3676H40.6161C41.0053 47.3676 41.3208 47.0521 41.3208 46.6629C41.3208 46.2737 41.0053 45.9583 40.6161 45.9583Z" fill="white"/>
<path d="M45.2871 49.5528L44.7707 50.1879C44.4223 50.6165 44.4872 51.2463 44.9158 51.5947L49.468 55.2958C49.8965 55.6442 50.5263 55.5793 50.8747 55.1508L51.3912 54.5156C51.7396 54.0871 51.6746 53.4572 51.2461 53.1088L46.6939 49.4077C46.2654 49.0593 45.6355 49.1242 45.2871 49.5528Z" fill="#36414D"/>
<circle cx="39.9109" cy="44.5489" r="7.95587" fill="white" stroke="#36414D"/>
</svg>
