<svg width="72" height="72" viewBox="0 0 72 72" fill="none" xmlns="http://www.w3.org/2000/svg">
<rect opacity="0.5" x="0.5" y="0.5" width="71" height="71" rx="35.5" stroke="#03A63C"/>
<rect x="5.5" y="5.5" width="61" height="61" rx="30.5" stroke="#03A63C"/>
<path d="M26.5908 22.3534C26.9381 21.7519 27.8063 21.7519 28.1536 22.3534L32.1093 29.2049C32.4566 29.8064 32.0225 30.5583 31.3279 30.5583H23.4165C22.7219 30.5583 22.2878 29.8064 22.6351 29.2049L26.5908 22.3534Z" fill="#03A63C"/>
<path d="M34.0342 22.3534C34.3814 21.7519 35.2496 21.7519 35.5969 22.3534L39.5526 29.2049C39.8999 29.8064 39.4658 30.5583 38.7713 30.5583H30.8598C30.1653 30.5583 29.7312 29.8064 30.0784 29.2049L34.0342 22.3534Z" fill="#03A63C"/>
<path d="M43.0576 26.4134C43.4049 25.8119 44.2731 25.8119 44.6204 26.4134L48.5761 33.2649C48.9233 33.8664 48.4893 34.6183 47.7947 34.6183H39.8833C39.1887 34.6183 38.7546 33.8664 39.1019 33.2649L43.0576 26.4134Z" fill="#03A63C"/>
<rect x="42.6543" y="34.1958" width="2.36842" height="2.81955" rx="0.112782" fill="#03A63C"/>
<path d="M33.6354 30.1398C33.6329 30.0759 33.6841 30.0227 33.7481 30.0227H35.8865C35.9488 30.0227 35.9993 30.0732 35.9993 30.1355V34.5249C35.9993 34.6195 35.8899 34.672 35.816 34.613L33.7839 32.9872C33.7583 32.9668 33.7429 32.9362 33.7417 32.9035L33.6354 30.1398Z" fill="#03A63C"/>
<rect x="26.0742" y="29.4585" width="2.36842" height="2.93233" rx="0.112782" fill="#03A63C"/>
<path d="M48.0119 38.7069V40.9626C48.0119 41.2429 47.7847 41.4701 47.5044 41.4701H38.9939C38.8973 41.4701 38.8027 41.4425 38.7212 41.3906L31.4966 36.7883C31.3246 36.6787 31.1249 36.6205 30.9209 36.6205H23.2563C22.976 36.6205 22.7488 36.3933 22.7488 36.113V33.8387C22.7488 33.5632 22.9687 33.3379 23.2442 33.3314L31.7079 33.1299C31.8082 33.1275 31.907 33.1549 31.9917 33.2086L39.6035 38.033C39.7751 38.1417 39.974 38.1994 40.1771 38.1994H47.5044C47.7847 38.1994 48.0119 38.4267 48.0119 38.7069Z" stroke="#36414D" stroke-width="0.56391"/>
<path d="M48.0122 43.1618V46.1505C48.0122 46.4308 47.7849 46.6581 47.5046 46.6581H38.764H30.3054H23.3129C23.0326 46.6581 22.8054 46.4308 22.8054 46.1505V38.425C22.8054 38.1447 23.0326 37.9175 23.3129 37.9175H30.6423C30.7377 37.9175 30.8311 37.9443 30.9119 37.995L38.0836 42.4907C38.2542 42.5976 38.4514 42.6543 38.6527 42.6543H47.5046C47.7849 42.6543 48.0122 42.8815 48.0122 43.1618Z" stroke="#36414D" stroke-width="0.56391"/>
<mask id="path-11-inside-1" fill="white">
<rect x="22.4668" y="47.5034" width="25.8271" height="3.49624" rx="0.338346"/>
</mask>
<rect x="22.4668" y="47.5034" width="25.8271" height="3.49624" rx="0.338346" stroke="#36414D" stroke-width="1.12782" mask="url(#path-11-inside-1)"/>
<circle cx="26.1875" cy="42.2028" r="0.451128" fill="#36414D"/>
<circle cx="29.6835" cy="42.2028" r="0.451128" fill="#36414D"/>
<circle cx="28.4433" cy="43.6689" r="0.451128" fill="#36414D"/>
</svg>
