<svg width="72" height="72" viewBox="0 0 72 72" fill="none" xmlns="http://www.w3.org/2000/svg">
<rect opacity="0.5" x="0.5" y="0.5" width="71" height="71" rx="35.5" stroke="#03A63C"/>
<rect x="5.5" y="5.5" width="61" height="61" rx="30.5" stroke="#03A63C"/>
<mask id="path-3-inside-1" fill="white">
<path d="M45.9325 38.0274V37.4663C45.9325 36.5366 45.1789 35.783 44.2492 35.783C43.3215 35.7876 42.5706 36.5385 42.566 37.4663V38.0274H40.5903C40.2824 37.6496 39.9281 37.312 39.5361 37.0224C39.4238 36.9383 39.3116 36.8597 39.1994 36.7873V34.0997H40.3216C41.2494 34.0951 42.0002 33.3442 42.0049 32.4164C42.0049 31.4868 41.2512 30.7331 40.3216 30.7331H38.0772V29.6109H39.1994C39.5093 29.6109 39.7605 29.3597 39.7605 29.0498V26.3666H43.1271C44.0567 26.3666 44.8103 26.6129 44.8103 25.6833C44.8103 24.7536 44.0567 24 43.1271 24H29.5386C28.6089 24 27.8553 24.7536 27.8553 25.6833C27.8553 26.6129 28.6089 26.3666 29.5386 26.3666H31.9052V29.0498C31.9052 29.3597 32.1564 29.6109 32.4663 29.6109H33.5885V30.7331H31.3441C30.4163 30.7378 29.6654 31.4886 29.6608 32.4164C29.6608 33.3461 30.4144 34.0997 31.3441 34.0997H32.4663V36.7873C32.354 36.8597 32.2418 36.9372 32.1335 37.0202C31.7398 37.31 31.3843 37.6484 31.0753 38.0274H29.0997V37.4663C29.0951 36.5385 28.3442 35.7876 27.4164 35.783C26.4868 35.783 25.7331 36.5366 25.7331 37.4663V38.0274H19V45.8827H25.7331V46.4438C25.7331 47.3734 26.4868 48.1271 27.4164 48.1271C28.3461 48.1271 29.0997 47.3734 29.0997 46.4438V45.8827H31.0764C33.2399 48.5096 37.1233 48.8852 39.7503 46.7217C40.0563 46.4697 40.3372 46.1887 40.5892 45.8827H42.566V46.4438C42.566 47.3734 43.3196 48.1271 44.2492 48.1271C45.1789 48.1271 45.9325 47.3734 45.9325 46.4438V45.8827H52.6657V38.0274H45.9325ZM25.7331 44.7605H20.1222V39.1495H25.7331V44.7605ZM27.9775 46.4438C27.9775 46.7536 27.7263 47.0049 27.4164 47.0049C27.1066 47.0049 26.8553 46.7536 26.8553 46.4438V37.4663C26.8553 37.1564 27.1066 36.9052 27.4164 36.9052C27.5676 36.9047 27.7123 36.9668 27.8159 37.0769C27.9206 37.1792 27.979 37.3199 27.9775 37.4663V46.4438ZM29.5386 26.2444C29.2287 26.2444 28.9775 25.9931 28.9775 25.6833C28.9775 25.3734 29.2287 25.1222 29.5386 25.1222H43.1271C43.4369 25.1222 43.6882 25.3734 43.6882 25.6833C43.6882 25.9931 43.4369 26.2444 43.1271 26.2444H29.5386ZM33.0274 28.4888V26.3666H38.6383V28.4888H33.0274ZM36.955 29.6109V30.7331H34.7106V29.6109H36.955ZM31.3441 32.9775C31.0342 32.9775 30.783 32.7263 30.783 32.4164C30.7825 32.2652 30.8446 32.1206 30.9547 32.0169C31.057 31.9122 31.1977 31.8538 31.3441 31.8553H40.3216C40.6314 31.8553 40.8827 32.1066 40.8827 32.4164C40.8832 32.5676 40.821 32.7123 40.711 32.8159C40.6087 32.9206 40.468 32.979 40.3216 32.9775H31.3441ZM42.566 44.7605H40.316C40.1394 44.7605 39.9731 44.8437 39.8671 44.9849C38.1999 47.213 35.0422 47.6677 32.8141 46.0005C32.4289 45.7122 32.0868 45.3702 31.7986 44.9849C31.6926 44.8437 31.5263 44.7605 31.3497 44.7605H29.0997V39.1495H31.3497C31.527 39.1486 31.6934 39.064 31.7986 38.9212C32.2065 38.3797 32.7199 37.9266 33.3079 37.5891C33.4821 37.4886 33.5891 37.3026 33.5885 37.1016V34.0997H38.0772V37.1016C38.0766 37.3026 38.1836 37.4886 38.3578 37.5891C38.5331 37.6906 38.7017 37.803 38.8627 37.9258C39.2436 38.2062 39.58 38.5426 39.8604 38.9234C39.9655 39.0662 40.1319 39.1509 40.3092 39.1518H42.566V44.7605ZM44.8103 46.4438C44.8103 46.7536 44.5591 47.0049 44.2492 47.0049C43.9394 47.0049 43.6882 46.7536 43.6882 46.4438V37.4663C43.6877 37.315 43.7498 37.1704 43.8598 37.0668C43.9622 36.9621 44.1029 36.9037 44.2492 36.9052C44.5591 36.9052 44.8103 37.1564 44.8103 37.4663V46.4438ZM51.5435 44.7605H45.9325V39.1495H51.5435V44.7605Z"/>
</mask>
<path d="M45.9325 38.0274V37.4663C45.9325 36.5366 45.1789 35.783 44.2492 35.783C43.3215 35.7876 42.5706 36.5385 42.566 37.4663V38.0274H40.5903C40.2824 37.6496 39.9281 37.312 39.5361 37.0224C39.4238 36.9383 39.3116 36.8597 39.1994 36.7873V34.0997H40.3216C41.2494 34.0951 42.0002 33.3442 42.0049 32.4164C42.0049 31.4868 41.2512 30.7331 40.3216 30.7331H38.0772V29.6109H39.1994C39.5093 29.6109 39.7605 29.3597 39.7605 29.0498V26.3666H43.1271C44.0567 26.3666 44.8103 26.6129 44.8103 25.6833C44.8103 24.7536 44.0567 24 43.1271 24H29.5386C28.6089 24 27.8553 24.7536 27.8553 25.6833C27.8553 26.6129 28.6089 26.3666 29.5386 26.3666H31.9052V29.0498C31.9052 29.3597 32.1564 29.6109 32.4663 29.6109H33.5885V30.7331H31.3441C30.4163 30.7378 29.6654 31.4886 29.6608 32.4164C29.6608 33.3461 30.4144 34.0997 31.3441 34.0997H32.4663V36.7873C32.354 36.8597 32.2418 36.9372 32.1335 37.0202C31.7398 37.31 31.3843 37.6484 31.0753 38.0274H29.0997V37.4663C29.0951 36.5385 28.3442 35.7876 27.4164 35.783C26.4868 35.783 25.7331 36.5366 25.7331 37.4663V38.0274H19V45.8827H25.7331V46.4438C25.7331 47.3734 26.4868 48.1271 27.4164 48.1271C28.3461 48.1271 29.0997 47.3734 29.0997 46.4438V45.8827H31.0764C33.2399 48.5096 37.1233 48.8852 39.7503 46.7217C40.0563 46.4697 40.3372 46.1887 40.5892 45.8827H42.566V46.4438C42.566 47.3734 43.3196 48.1271 44.2492 48.1271C45.1789 48.1271 45.9325 47.3734 45.9325 46.4438V45.8827H52.6657V38.0274H45.9325ZM25.7331 44.7605H20.1222V39.1495H25.7331V44.7605ZM27.9775 46.4438C27.9775 46.7536 27.7263 47.0049 27.4164 47.0049C27.1066 47.0049 26.8553 46.7536 26.8553 46.4438V37.4663C26.8553 37.1564 27.1066 36.9052 27.4164 36.9052C27.5676 36.9047 27.7123 36.9668 27.8159 37.0769C27.9206 37.1792 27.979 37.3199 27.9775 37.4663V46.4438ZM29.5386 26.2444C29.2287 26.2444 28.9775 25.9931 28.9775 25.6833C28.9775 25.3734 29.2287 25.1222 29.5386 25.1222H43.1271C43.4369 25.1222 43.6882 25.3734 43.6882 25.6833C43.6882 25.9931 43.4369 26.2444 43.1271 26.2444H29.5386ZM33.0274 28.4888V26.3666H38.6383V28.4888H33.0274ZM36.955 29.6109V30.7331H34.7106V29.6109H36.955ZM31.3441 32.9775C31.0342 32.9775 30.783 32.7263 30.783 32.4164C30.7825 32.2652 30.8446 32.1206 30.9547 32.0169C31.057 31.9122 31.1977 31.8538 31.3441 31.8553H40.3216C40.6314 31.8553 40.8827 32.1066 40.8827 32.4164C40.8832 32.5676 40.821 32.7123 40.711 32.8159C40.6087 32.9206 40.468 32.979 40.3216 32.9775H31.3441ZM42.566 44.7605H40.316C40.1394 44.7605 39.9731 44.8437 39.8671 44.9849C38.1999 47.213 35.0422 47.6677 32.8141 46.0005C32.4289 45.7122 32.0868 45.3702 31.7986 44.9849C31.6926 44.8437 31.5263 44.7605 31.3497 44.7605H29.0997V39.1495H31.3497C31.527 39.1486 31.6934 39.064 31.7986 38.9212C32.2065 38.3797 32.7199 37.9266 33.3079 37.5891C33.4821 37.4886 33.5891 37.3026 33.5885 37.1016V34.0997H38.0772V37.1016C38.0766 37.3026 38.1836 37.4886 38.3578 37.5891C38.5331 37.6906 38.7017 37.803 38.8627 37.9258C39.2436 38.2062 39.58 38.5426 39.8604 38.9234C39.9655 39.0662 40.1319 39.1509 40.3092 39.1518H42.566V44.7605ZM44.8103 46.4438C44.8103 46.7536 44.5591 47.0049 44.2492 47.0049C43.9394 47.0049 43.6882 46.7536 43.6882 46.4438V37.4663C43.6877 37.315 43.7498 37.1704 43.8598 37.0668C43.9622 36.9621 44.1029 36.9037 44.2492 36.9052C44.5591 36.9052 44.8103 37.1564 44.8103 37.4663V46.4438ZM51.5435 44.7605H45.9325V39.1495H51.5435V44.7605Z" fill="#36414D" stroke="#36414D" stroke-width="0.140274" mask="url(#path-3-inside-1)"/>
<rect x="27.0351" y="24.0351" width="17.9299" height="2.92986" rx="1.46493" fill="#03A63C" stroke="#03A63C" stroke-width="0.0701368"/>
</svg>
