<svg width="72" height="72" viewBox="0 0 72 72" fill="none" xmlns="http://www.w3.org/2000/svg">
<rect opacity="0.5" x="0.5" y="0.5" width="71" height="71" rx="35.5" stroke="#03A63C"/>
<rect x="5.5" y="5.5" width="61" height="61" rx="30.5" stroke="#03A63C"/>
<path d="M32.9707 25.3301V44.2018" stroke="#36414D" stroke-width="3" stroke-miterlimit="10" stroke-linecap="round" stroke-linejoin="round"/>
<path d="M27.0103 23.712C28.3115 23.712 29.3663 22.6572 29.3663 21.356C29.3663 20.0548 28.3115 19 27.0103 19C25.7091 19 24.6543 20.0548 24.6543 21.356C24.6543 22.6572 25.7091 23.712 27.0103 23.712Z" fill="#03A63C"/>
<path d="M23.7524 25.4452C23.8398 24.8473 24.3036 24.4877 24.6423 24.5821L27.1006 25.2674C27.4383 25.3638 27.5545 26.1485 27.4592 26.4891L25.4339 34.8046C25.3346 35.1463 25.131 35.3152 24.7923 35.2178L23.1316 34.8583C21.7937 33.7568 21.8016 32.7983 22.0758 31.4753L23.7524 25.4452Z" fill="#03A63C"/>
<path d="M21.6433 35L21.2222 37.945C21.2222 37.945 20.1385 40.5185 19.3936 42.0302C18.8304 43.1754 18.5652 44.0008 18.9526 44.2074C19.5466 44.5233 20.3451 43.8151 21.1815 42.511C22.5839 40.3238 23.306 39.2303 23.5762 38.6989L24.0003 37.3103C24.0003 37.3113 21.9175 35.9327 21.6433 35Z" fill="#03A63C"/>
<path d="M29.0859 36.2192L25.8052 32.9614C25.2877 32.4399 24.515 32.6853 23.9915 33.2037C23.4691 33.7182 22.446 34.2049 22.9615 34.7294L27.1342 38.2425L26.6723 42.7439C26.6385 43.8544 26.7041 44.498 27.4093 44.5715C28.0678 44.64 28.3579 43.2703 28.4264 42.9237C28.4264 42.9237 29.2697 38.612 29.372 38.0041C29.4743 37.3952 29.5358 36.6791 29.0859 36.2192Z" fill="#03A63C"/>
<path d="M33.0527 26.5596L30.5795 27.7227L27.4637 25.4482C26.9691 25.0896 26.2748 25.2009 25.9152 25.6985C25.5566 26.1941 25.6679 26.8864 26.1655 27.2469L29.5257 29.6804C29.8415 29.9079 30.3272 30.0271 30.6828 29.8731C30.6828 29.8731 32.9901 28.4716 33.6089 28.0684C34.2575 27.6433 34.9359 27.085 34.6856 26.6162C34.33 25.9428 33.6824 26.2557 33.0527 26.5596Z" fill="#03A63C"/>
<path d="M22.5937 25.3479C22.5937 25.3479 21.1198 29.9228 20.8963 30.6499C20.6728 31.377 19.8931 31.8815 18.7916 31.5458C17.6901 31.2091 16.5468 30.7472 16.7256 29.46C16.9213 28.0575 18.2463 26.1952 19.3955 24.9973C20.5447 23.8005 23.1688 23.3843 22.5937 25.3479Z" fill="#03A63C"/>
<path d="M39.5407 38.873C39.5624 38.8947 39.5908 38.9055 39.6192 38.9055C39.6477 38.9055 39.6762 38.8946 39.698 38.8728C39.7415 38.8293 39.7413 38.7587 39.6979 38.7152C39.6544 38.6717 39.5839 38.6717 39.5404 38.7152C39.4969 38.7587 39.4969 38.8292 39.5404 38.8727L39.5407 38.873Z" fill="#36414D"/>
<path d="M41.5941 41.2685C41.5306 40.8072 41.2913 40.3981 40.9202 40.1168C40.7132 39.96 40.479 39.8533 40.2323 39.8007C40.1925 39.5757 40.1177 39.3593 40.0092 39.1564C39.9802 39.1022 39.9128 39.0817 39.8586 39.1107C39.8043 39.1397 39.7839 39.2071 39.8129 39.2613C39.8986 39.4216 39.9608 39.5914 39.9989 39.7674C39.877 39.7585 39.7532 39.7622 39.6292 39.7793C39.2681 39.829 38.948 39.9868 38.6967 40.2153C38.4935 40.1952 38.2874 40.185 38.0833 40.185C37.7748 40.1852 37.471 40.2074 37.1752 40.2512C37.0315 40.2698 36.8883 40.2991 36.7471 40.3309C36.7077 40.3398 36.6685 40.3492 36.6293 40.3588C36.4875 40.3934 36.2733 40.4458 36.1836 40.3754C36.1434 40.3439 36.1231 40.2802 36.1231 40.1862C36.1231 39.105 37.0025 38.2241 38.0832 38.2226C38.48 38.2232 38.8618 38.3413 39.1874 38.5642C39.2381 38.5989 39.3074 38.586 39.3422 38.5352C39.3769 38.4845 39.3639 38.4152 39.3132 38.3805C38.9504 38.1322 38.5252 38.0006 38.0832 38C37.5 38.0008 36.9519 38.2286 36.5397 38.6413C36.1274 39.0542 35.9004 39.6028 35.9004 40.1862C35.9004 40.3521 35.9494 40.4747 36.0461 40.5506C36.1245 40.6121 36.2213 40.6329 36.3217 40.6329C36.4454 40.6329 36.5748 40.6013 36.6822 40.575C36.8057 40.5449 36.9299 40.5182 37.0552 40.4962C37.0447 40.6965 37.1308 40.8073 37.1917 40.8598C37.2573 40.9164 37.3404 40.9495 37.4337 40.9587L37.3036 42.883C37.2913 43.0637 37.3555 43.2391 37.4843 43.3769C37.6238 43.5262 37.8208 43.6119 38.0247 43.6119H38.1424C38.3463 43.6119 38.5432 43.5262 38.6827 43.3769C38.8115 43.2391 38.8757 43.0637 38.8634 42.883L38.803 41.9902C38.8101 41.9874 38.8172 41.9846 38.824 41.9819C38.8339 41.978 38.8435 41.9742 38.8528 41.9705C39.0141 41.9075 39.181 41.8537 39.3513 41.8094L39.4406 43.0961C39.4509 43.245 39.5229 43.3808 39.6432 43.4786C39.7516 43.5666 39.8875 43.6142 40.0257 43.6142C40.0529 43.6142 40.0802 43.6123 40.1073 43.6086L40.2039 43.5954C40.3693 43.5726 40.5195 43.4812 40.616 43.3445C40.7054 43.2179 40.738 43.0677 40.7077 42.9216L40.4457 41.6587C40.6216 41.6554 40.7968 41.662 40.9692 41.6791C40.9793 41.6801 40.9898 41.6812 41.0005 41.6823C41.1621 41.6991 41.3835 41.7221 41.5131 41.5881C41.5857 41.513 41.6129 41.4055 41.5941 41.2685V41.2685ZM37.2823 40.461C37.5439 40.4258 37.8117 40.4078 38.0833 40.4076C38.2228 40.4076 38.3632 40.4126 38.5029 40.4224C38.4455 40.4946 38.3939 40.5714 38.3485 40.6519C38.2675 40.633 38.1764 40.6227 38.0833 40.6227C37.936 40.6227 37.7966 40.6474 37.6906 40.6925C37.5476 40.7536 37.4088 40.7532 37.3372 40.6913C37.2855 40.6466 37.2667 40.5662 37.2823 40.461V40.461ZM38.6413 42.8981C38.6493 43.0166 38.6063 43.1327 38.5201 43.2249C38.4225 43.3293 38.2848 43.3892 38.1424 43.3892H38.0247C37.8822 43.3892 37.7445 43.3293 37.647 43.2249C37.5608 43.1327 37.5177 43.0166 37.5258 42.8981L37.6582 40.9384C37.6976 40.9281 37.7376 40.9145 37.7779 40.8973C37.8557 40.8643 37.967 40.8453 38.0834 40.8453C38.1412 40.8453 38.1973 40.85 38.249 40.8587C38.1396 41.1306 38.0973 41.4336 38.14 41.7441C38.1589 41.8812 38.2142 41.9773 38.3044 42.03C38.3572 42.0608 38.4148 42.0727 38.4739 42.0727C38.5105 42.0727 38.5477 42.068 38.5846 42.0605L38.6413 42.8981ZM40.4896 42.9668C40.5073 43.0518 40.4876 43.1404 40.4341 43.2161C40.3731 43.3026 40.2781 43.3604 40.1736 43.3748L40.077 43.388C39.9725 43.4024 39.8656 43.3724 39.7835 43.3058C39.7116 43.2473 39.6687 43.1674 39.6627 43.0807L39.5708 41.7579C39.7846 41.7132 40.0024 41.6832 40.2203 41.6685L40.4896 42.9668ZM41.3531 41.4333C41.2987 41.4895 41.1264 41.4716 41.0235 41.4609C41.0124 41.4597 41.0016 41.4586 40.9911 41.4575C40.2518 41.3842 39.4636 41.4928 38.7717 41.7632C38.7621 41.767 38.7521 41.7709 38.7419 41.7749C38.6456 41.8132 38.4843 41.8772 38.4166 41.8377C38.3816 41.8172 38.3668 41.759 38.3606 41.7138C38.2464 40.8832 38.8291 40.1143 39.6596 39.9998C39.8118 39.9788 39.9637 39.9808 40.1112 40.0046C40.1143 40.0052 40.1174 40.0057 40.1205 40.0061C40.3596 40.0462 40.587 40.1437 40.7857 40.2943C41.1094 40.5396 41.3182 40.8964 41.3735 41.2989C41.3797 41.3441 41.3812 41.4042 41.3531 41.4333V41.4333Z" fill="#36414D"/>
<path d="M37.2773 39.0596C37.2773 38.9981 37.2275 38.9482 37.166 38.9482C37.1045 38.9482 37.0547 38.9981 37.0547 39.0596V39.0599C37.0547 39.1214 37.1045 39.171 37.166 39.171C37.2275 39.171 37.2773 39.1211 37.2773 39.0596V39.0596Z" fill="#36414D"/>
<path d="M36.5703 39.5613V39.5616C36.5703 39.6231 36.6201 39.6728 36.6816 39.6728C36.7431 39.6728 36.793 39.6228 36.793 39.5613C36.793 39.4998 36.7431 39.45 36.6816 39.45C36.6201 39.45 36.5703 39.4998 36.5703 39.5613V39.5613Z" fill="#36414D"/>
<path d="M37.291 39.7977C37.3525 39.7977 37.4023 39.7475 37.4023 39.686C37.4023 39.6246 37.3525 39.5747 37.291 39.5747C37.2295 39.5747 37.1797 39.6245 37.1797 39.686V39.6867C37.1797 39.7482 37.2295 39.7977 37.291 39.7977V39.7977Z" fill="#36414D"/>
<path d="M39.4141 40.6448C39.4141 40.5833 39.3642 40.5334 39.3027 40.5334C39.2412 40.5334 39.1914 40.5833 39.1914 40.6448V40.6451C39.1914 40.7066 39.2412 40.7563 39.3027 40.7563C39.3642 40.7563 39.4141 40.7063 39.4141 40.6448Z" fill="#36414D"/>
<path d="M38.957 40.8921C38.8956 40.8921 38.8457 40.9419 38.8457 41.0034V41.0037C38.8457 41.0652 38.8955 41.1149 38.957 41.1149C39.0185 41.1149 39.0684 41.0649 39.0684 41.0034C39.0683 40.9419 39.0185 40.8921 38.957 40.8921Z" fill="#36414D"/>
<path d="M39.4805 41.0042C39.419 41.0042 39.3691 41.054 39.3691 41.1155V41.1161C39.3691 41.1776 39.419 41.2271 39.4805 41.2271C39.542 41.2271 39.5918 41.1769 39.5918 41.1155C39.5918 41.054 39.542 41.0042 39.4805 41.0042Z" fill="#36414D"/>
<path d="M44.1325 38.8735C44.1542 38.8952 44.1826 38.906 44.211 38.906C44.2395 38.906 44.268 38.8951 44.2898 38.8733C44.3333 38.8298 44.3331 38.7592 44.2897 38.7157C44.2462 38.6722 44.1757 38.6722 44.1322 38.7157C44.0887 38.7592 44.0887 38.8297 44.1322 38.8731L44.1325 38.8735Z" fill="#36414D"/>
<path d="M46.1859 41.2686C46.1225 40.8072 45.8832 40.3982 45.512 40.1169C45.305 39.96 45.0709 39.8534 44.8242 39.8007C44.7843 39.5757 44.7095 39.3593 44.6011 39.1564C44.5721 39.1022 44.5046 39.0817 44.4504 39.1107C44.3962 39.1397 44.3757 39.2071 44.4047 39.2614C44.4904 39.4217 44.5527 39.5914 44.5908 39.7675C44.4688 39.7585 44.3451 39.7622 44.2211 39.7793C43.86 39.8291 43.5398 39.9868 43.2885 40.2153C43.0853 40.1953 42.8792 40.185 42.6751 40.185C42.3667 40.1852 42.0628 40.2075 41.767 40.2513C41.6233 40.2699 41.4801 40.2991 41.3389 40.331C41.2995 40.3398 41.2603 40.3492 41.2211 40.3588C41.0793 40.3935 40.8651 40.4459 40.7754 40.3754C40.7352 40.3439 40.7149 40.2802 40.7149 40.1862C40.7149 39.105 41.5943 38.2241 42.675 38.2226C43.0718 38.2232 43.4536 38.3413 43.7793 38.5642C43.83 38.5989 43.8993 38.586 43.934 38.5352C43.9687 38.4845 43.9557 38.4152 43.905 38.3805C43.5423 38.1322 43.117 38.0006 42.675 38C42.0919 38.0008 41.5437 38.2286 41.1315 38.6413C40.7192 39.0542 40.4922 39.6028 40.4922 40.1862C40.4922 40.3521 40.5412 40.4747 40.6379 40.5506C40.7163 40.6121 40.8131 40.633 40.9135 40.633C41.0373 40.633 41.1666 40.6013 41.274 40.5751C41.3975 40.5449 41.5218 40.5182 41.647 40.4962C41.6365 40.6966 41.7226 40.8073 41.7835 40.8598C41.8491 40.9165 41.9322 40.9495 42.0255 40.9587L41.8954 42.8831C41.8832 43.0638 41.9473 43.2392 42.0761 43.377C42.2156 43.5263 42.4126 43.6119 42.6165 43.6119H42.7342C42.9381 43.6119 43.1351 43.5263 43.2746 43.377C43.4033 43.2392 43.4675 43.0638 43.4552 42.8831L43.3948 41.9903C43.402 41.9875 43.409 41.9847 43.4159 41.982C43.4258 41.978 43.4354 41.9742 43.4446 41.9706C43.606 41.9075 43.7728 41.8538 43.9431 41.8095L44.0324 43.0962C44.0428 43.2451 44.1147 43.3809 44.235 43.4786C44.3434 43.5667 44.4794 43.6143 44.6175 43.6143C44.6447 43.6143 44.672 43.6124 44.6992 43.6087L44.7958 43.5954C44.9612 43.5727 45.1114 43.4813 45.2079 43.3446C45.2973 43.2179 45.3299 43.0677 45.2995 42.9217L45.0376 41.6588C45.2135 41.6554 45.3887 41.6621 45.561 41.6792C45.5712 41.6802 45.5816 41.6813 45.5924 41.6824C45.754 41.6992 45.9753 41.7222 46.105 41.5881C46.1776 41.5131 46.2048 41.4056 46.1859 41.2686V41.2686ZM41.8741 40.461C42.1357 40.4258 42.4035 40.4078 42.6752 40.4077C42.8146 40.4077 42.955 40.4127 43.0947 40.4224C43.0374 40.4947 42.9858 40.5714 42.9404 40.6519C42.8593 40.633 42.7682 40.6227 42.6752 40.6227C42.5278 40.6227 42.3884 40.6475 42.2824 40.6926C42.1394 40.7537 42.0006 40.7532 41.929 40.6913C41.8773 40.6467 41.8586 40.5662 41.8741 40.461V40.461ZM43.2331 42.8982C43.2411 43.0167 43.1981 43.1327 43.1119 43.225C43.0143 43.3294 42.8767 43.3893 42.7342 43.3893H42.6165C42.474 43.3893 42.3363 43.3294 42.2388 43.225C42.1526 43.1327 42.1095 43.0167 42.1176 42.8981L42.25 40.9384C42.2894 40.9281 42.3294 40.9146 42.3697 40.8974C42.4475 40.8643 42.5588 40.8453 42.6752 40.8453C42.733 40.8453 42.7891 40.8501 42.8408 40.8588C42.7315 41.1307 42.6891 41.4337 42.7318 41.7442C42.7507 41.8812 42.806 41.9774 42.8962 42.03C42.949 42.0608 43.0067 42.0727 43.0657 42.0727C43.1024 42.0727 43.1396 42.0681 43.1764 42.0605L43.2331 42.8982ZM45.0815 42.9669C45.0992 43.0519 45.0794 43.1405 45.026 43.2162C44.9649 43.3027 44.87 43.3605 44.7654 43.3749L44.6688 43.3881C44.5644 43.4025 44.4575 43.3725 44.3754 43.3058C44.3035 43.2474 44.2605 43.1675 44.2545 43.0808L44.1627 41.758C44.3765 41.7133 44.5942 41.6833 44.8122 41.6686L45.0815 42.9669ZM45.9449 41.4333C45.8906 41.4895 45.7183 41.4716 45.6154 41.4609C45.6043 41.4598 45.5935 41.4586 45.583 41.4576C44.8437 41.3843 44.0554 41.4928 43.3635 41.7632C43.3539 41.767 43.344 41.771 43.3338 41.775C43.2374 41.8132 43.0761 41.8772 43.0084 41.8377C42.9734 41.8173 42.9586 41.7591 42.9524 41.7138C42.8382 40.8832 43.4209 40.1143 44.2514 39.9998C44.4037 39.9788 44.5556 39.9808 44.7031 40.0046C44.7062 40.0052 44.7092 40.0058 44.7124 40.0062C44.9514 40.0462 45.1789 40.1437 45.3776 40.2943C45.7013 40.5397 45.91 40.8964 45.9654 41.2989C45.9716 41.3442 45.9731 41.4042 45.9449 41.4333V41.4333Z" fill="#36414D"/>
<path d="M41.8691 39.0596C41.8691 38.9981 41.8193 38.9482 41.7578 38.9482C41.6963 38.9482 41.6465 38.9981 41.6465 39.0596V39.0599C41.6465 39.1214 41.6963 39.171 41.7578 39.171C41.8193 39.171 41.8691 39.1211 41.8691 39.0596V39.0596Z" fill="#36414D"/>
<path d="M41.1621 39.561V39.5614C41.1621 39.6228 41.2119 39.6725 41.2734 39.6725C41.3349 39.6725 41.3848 39.6225 41.3848 39.561C41.3848 39.4996 41.3349 39.4497 41.2734 39.4497C41.2119 39.4497 41.1621 39.4996 41.1621 39.561V39.561Z" fill="#36414D"/>
<path d="M41.8828 39.7974C41.9443 39.7974 41.9941 39.7473 41.9941 39.6858C41.9941 39.6243 41.9443 39.5745 41.8828 39.5745C41.8213 39.5745 41.7715 39.6243 41.7715 39.6858V39.6864C41.7715 39.7479 41.8213 39.7974 41.8828 39.7974V39.7974Z" fill="#36414D"/>
<path d="M44.0059 40.6445C44.0059 40.5831 43.956 40.5332 43.8945 40.5332C43.833 40.5332 43.7832 40.583 43.7832 40.6445V40.6449C43.7832 40.7063 43.833 40.756 43.8945 40.756C43.956 40.756 44.0059 40.706 44.0059 40.6445Z" fill="#36414D"/>
<path d="M43.5488 40.8921C43.4873 40.8921 43.4375 40.9419 43.4375 41.0034V41.0037C43.4375 41.0652 43.4873 41.1149 43.5488 41.1149C43.6103 41.1149 43.6602 41.0649 43.6602 41.0034C43.6601 40.9419 43.6103 40.8921 43.5488 40.8921Z" fill="#36414D"/>
<path d="M44.0723 41.0037C44.0108 41.0037 43.9609 41.0535 43.9609 41.115V41.1156C43.9609 41.1771 44.0108 41.2266 44.0723 41.2266C44.1338 41.2266 44.1836 41.1765 44.1836 41.115C44.1836 41.0535 44.1337 41.0037 44.0723 41.0037Z" fill="#36414D"/>
<path d="M47.9919 39.7175C48.0097 39.7353 48.0331 39.7442 48.0564 39.7442C48.0798 39.7442 48.1033 39.7352 48.1212 39.7174C48.1569 39.6816 48.1568 39.6236 48.121 39.5878C48.0853 39.5521 48.0274 39.5521 47.9916 39.5878C47.9559 39.6236 47.9559 39.6815 47.9916 39.7172L47.9919 39.7175Z" fill="#36414D"/>
<path d="M49.6796 41.6864C49.6275 41.3072 49.4308 40.971 49.1257 40.7398C48.9556 40.6109 48.7631 40.5232 48.5604 40.48C48.5276 40.295 48.4661 40.1172 48.377 39.9504C48.3532 39.9059 48.2978 39.889 48.2532 39.9129C48.2086 39.9367 48.1918 39.9921 48.2156 40.0367C48.2861 40.1684 48.3372 40.3079 48.3685 40.4526C48.2683 40.4453 48.1666 40.4483 48.0647 40.4624C47.7679 40.5033 47.5048 40.6329 47.2983 40.8207C47.1312 40.8043 46.9619 40.7958 46.7941 40.7958C46.5406 40.796 46.2909 40.8143 46.0477 40.8503C45.9297 40.8656 45.8119 40.8896 45.6959 40.9158C45.6635 40.9231 45.6313 40.9308 45.5991 40.9387C45.4826 40.9671 45.3065 41.0102 45.2328 40.9523C45.1997 40.9264 45.183 40.8741 45.183 40.7968C45.183 39.9082 45.9058 39.1842 46.794 39.183C47.1201 39.1835 47.434 39.2805 47.7016 39.4637C47.7433 39.4923 47.8002 39.4816 47.8288 39.4399C47.8573 39.3982 47.8466 39.3412 47.8049 39.3127C47.5068 39.1087 47.1573 39.0005 46.794 39C46.3147 39.0007 45.8642 39.1879 45.5254 39.5271C45.1866 39.8664 45 40.3173 45 40.7968C45 40.9331 45.0403 41.0339 45.1198 41.0963C45.1842 41.1469 45.2637 41.164 45.3463 41.164C45.448 41.164 45.5543 41.138 45.6425 41.1164C45.744 41.0916 45.8462 41.0697 45.9491 41.0516C45.9405 41.2163 46.0113 41.3073 46.0613 41.3504C46.1152 41.397 46.1835 41.4242 46.2602 41.4317L46.1533 43.0133C46.1432 43.1619 46.196 43.306 46.3018 43.4193C46.4164 43.542 46.5783 43.6124 46.7459 43.6124H46.8427C47.0102 43.6124 47.1721 43.542 47.2868 43.4193C47.3926 43.306 47.4454 43.1618 47.4353 43.0133L47.3856 42.2796C47.3915 42.2772 47.3973 42.275 47.4029 42.2727C47.4111 42.2695 47.419 42.2663 47.4266 42.2634C47.5592 42.2115 47.6963 42.1674 47.8362 42.1309L47.9097 43.1885C47.9182 43.3108 47.9773 43.4225 48.0762 43.5028C48.1652 43.5752 48.277 43.6143 48.3905 43.6143C48.4129 43.6143 48.4353 43.6128 48.4577 43.6097L48.537 43.5988C48.673 43.5801 48.7964 43.505 48.8757 43.3926C48.9492 43.2885 48.976 43.1651 48.9511 43.045L48.7358 42.0071C48.8804 42.0043 49.0243 42.0098 49.166 42.0238C49.1743 42.0247 49.1829 42.0256 49.1917 42.0265C49.3246 42.0403 49.5065 42.0592 49.6131 41.949C49.6727 41.8873 49.6951 41.799 49.6796 41.6864V41.6864ZM46.1358 41.0227C46.3508 40.9937 46.5709 40.979 46.7942 40.9788C46.9088 40.9788 47.0242 40.9829 47.139 40.9909C47.0918 41.0503 47.0494 41.1134 47.0121 41.1795C46.9455 41.164 46.8706 41.1555 46.7942 41.1555C46.6731 41.1555 46.5585 41.1759 46.4713 41.213C46.3538 41.2632 46.2398 41.2628 46.1809 41.2119C46.1384 41.1753 46.123 41.1091 46.1358 41.0227V41.0227ZM47.2527 43.0257C47.2593 43.1231 47.2239 43.2185 47.1531 43.2943C47.0729 43.3801 46.9598 43.4294 46.8427 43.4294H46.7459C46.6288 43.4294 46.5157 43.3801 46.4355 43.2943C46.3646 43.2185 46.3293 43.1231 46.3359 43.0257L46.4447 41.415C46.4771 41.4066 46.51 41.3954 46.5431 41.3813C46.607 41.3541 46.6985 41.3385 46.7942 41.3385C46.8417 41.3385 46.8878 41.3424 46.9303 41.3496C46.8404 41.573 46.8056 41.8221 46.8407 42.0773C46.8562 42.1899 46.9017 42.2689 46.9758 42.3122C47.0192 42.3375 47.0666 42.3473 47.1151 42.3473C47.1453 42.3473 47.1758 42.3435 47.2061 42.3373L47.2527 43.0257ZM48.7719 43.0822C48.7864 43.1521 48.7702 43.2249 48.7262 43.2871C48.6761 43.3582 48.598 43.4057 48.5121 43.4175L48.4327 43.4284C48.3469 43.4402 48.259 43.4156 48.1915 43.3608C48.1324 43.3127 48.0971 43.2471 48.0922 43.1758L48.0167 42.0886C48.1924 42.0519 48.3714 42.0272 48.5505 42.0151L48.7719 43.0822ZM49.4815 41.8218C49.4369 41.868 49.2952 41.8533 49.2106 41.8445C49.2015 41.8435 49.1926 41.8426 49.184 41.8417C48.5764 41.7815 47.9286 41.8707 47.3599 42.0929C47.352 42.096 47.3438 42.0993 47.3354 42.1026C47.2562 42.134 47.1237 42.1866 47.0681 42.1542C47.0393 42.1374 47.0271 42.0895 47.022 42.0523C46.9281 41.3697 47.4071 40.7377 48.0897 40.6436C48.2148 40.6264 48.3396 40.628 48.4609 40.6475C48.4634 40.6481 48.4659 40.6485 48.4685 40.6488C48.665 40.6818 48.8519 40.7619 49.0152 40.8856C49.2813 41.0873 49.4528 41.3805 49.4983 41.7113C49.5034 41.7485 49.5047 41.7979 49.4815 41.8218V41.8218Z" fill="#36414D"/>
<path d="M46.1322 39.871C46.1322 39.8205 46.0913 39.7795 46.0407 39.7795C45.9902 39.7795 45.9492 39.8205 45.9492 39.871V39.8713C45.9492 39.9218 45.9902 39.9627 46.0407 39.9627C46.0913 39.9627 46.1322 39.9216 46.1322 39.871V39.871Z" fill="#36414D"/>
<path d="M45.5508 40.2832V40.2834C45.5508 40.3339 45.5917 40.3748 45.6423 40.3748C45.6928 40.3748 45.7338 40.3337 45.7338 40.2832C45.7338 40.2326 45.6928 40.1917 45.6423 40.1917C45.5917 40.1917 45.5508 40.2326 45.5508 40.2832V40.2832Z" fill="#36414D"/>
<path d="M46.1442 40.4772C46.1948 40.4772 46.2357 40.436 46.2357 40.3854C46.2357 40.3349 46.1948 40.2939 46.1442 40.2939C46.0937 40.2939 46.0527 40.3349 46.0527 40.3854V40.386C46.0527 40.4365 46.0937 40.4772 46.1442 40.4772V40.4772Z" fill="#36414D"/>
<path d="M47.8881 41.1738C47.8881 41.1232 47.8471 41.0823 47.7966 41.0823C47.746 41.0823 47.7051 41.1232 47.7051 41.1738V41.174C47.7051 41.2246 47.746 41.2654 47.7966 41.2654C47.8471 41.2654 47.8881 41.2243 47.8881 41.1738Z" fill="#36414D"/>
<path d="M47.5114 41.3767C47.4609 41.3767 47.4199 41.4177 47.4199 41.4682V41.4685C47.4199 41.519 47.4609 41.5598 47.5114 41.5598C47.562 41.5598 47.6029 41.5187 47.6029 41.4682C47.6029 41.4177 47.562 41.3767 47.5114 41.3767Z" fill="#36414D"/>
<path d="M47.9411 41.4692C47.8906 41.4692 47.8496 41.5102 47.8496 41.5607V41.5613C47.8496 41.6118 47.8906 41.6525 47.9411 41.6525C47.9916 41.6525 48.0326 41.6113 48.0326 41.5607C48.0326 41.5102 47.9916 41.4692 47.9411 41.4692Z" fill="#36414D"/>
<mask id="path-34-inside-1" fill="white">
<rect x="15" y="43.5854" width="42" height="5.12195" rx="2.55109"/>
</mask>
<rect x="15" y="43.5854" width="42" height="5.12195" rx="2.55109" stroke="#36414D" stroke-width="5.12195" mask="url(#path-34-inside-1)"/>
</svg>
