<svg width="72" height="72" viewBox="0 0 72 72" fill="none" xmlns="http://www.w3.org/2000/svg">
<rect opacity="0.5" x="0.5" y="0.5" width="71" height="71" rx="35.5" stroke="#03A63C"/>
<rect x="5.5" y="5.5" width="61" height="61" rx="30.5" stroke="#03A63C"/>
<g clip-path="url(#clip0)">
<path d="M50.1211 37.8789H21.8789C21.3932 37.8789 21 38.2721 21 38.7578V40.5742C21 41.0599 21.3932 41.4531 21.8789 41.4531H27.2109V43.8362C27.7676 43.6332 28.3579 43.5165 28.9688 43.5165C29.5796 43.5165 30.1699 43.6332 30.7266 43.8362V41.4531H41.2734V43.8362C41.8301 43.6332 42.4204 43.5165 43.0312 43.5165C43.6421 43.5165 44.2324 43.6332 44.7891 43.8362V41.4531H50.1211C50.607 41.4531 51 41.0599 51 40.5742V38.7578C51 38.2721 50.607 37.8789 50.1211 37.8789Z" fill="#36414D"/>
<path d="M50.1211 45.2725C49.2225 45.2725 48.3184 45.6227 47.6833 46.2578C47.0568 46.8842 46.0372 46.8842 45.4105 46.2578C44.099 44.9461 41.9635 44.9461 40.652 46.2578C40.0443 46.8652 38.9869 46.8652 38.3792 46.2578C37.0677 44.9461 34.9323 44.9461 33.6208 46.2578C33.0131 46.8652 31.9557 46.8652 31.348 46.2578C30.0365 44.9461 27.901 44.9461 26.5895 46.2578C25.9631 46.8842 24.8848 46.8842 24.2581 46.2578C23.623 45.6224 22.7775 45.2725 21.8789 45.2725C21.3932 45.2725 21 45.6655 21 46.1514C21 46.6371 21.3932 47.0303 21.8789 47.0303C22.3081 47.0303 22.7116 47.1976 23.0153 47.5006C24.3268 48.8121 26.5209 48.8121 27.8324 47.5006C28.459 46.8739 29.4787 46.8739 30.1051 47.5006C31.4166 48.8121 33.5521 48.8121 34.8636 47.5006C35.4903 46.8739 36.5099 46.8739 37.1364 47.5006C38.4479 48.8121 40.5834 48.8121 41.8949 47.5006C42.5215 46.8739 43.5412 46.8739 44.1676 47.5006C44.8234 48.1561 45.6851 48.4841 46.5469 48.4841C47.4086 48.4841 48.3289 48.1561 48.9847 47.5006C49.2887 47.1976 49.6919 47.0303 50.1211 47.0303C50.607 47.0303 51 46.6371 51 46.1514C51 45.6655 50.607 45.2725 50.1211 45.2725Z" fill="#36414D"/>
<path d="M50.1211 48.7881C49.2225 48.7881 48.3184 49.1383 47.6833 49.7734C47.0568 50.3999 46.0372 50.3999 45.4105 49.7734C44.099 48.4617 41.9635 48.4617 40.652 49.7734C40.0443 50.3809 38.9869 50.3809 38.3792 49.7734C37.0677 48.4617 34.9323 48.4617 33.6208 49.7734C33.0131 50.3809 31.9557 50.3809 31.348 49.7734C30.0365 48.4617 27.901 48.4617 26.5895 49.7734C25.9631 50.3999 24.8848 50.3999 24.2581 49.7734C23.623 49.138 22.7775 48.7881 21.8789 48.7881C21.3932 48.7881 21 49.1811 21 49.667C21 50.1527 21.3932 50.5459 21.8789 50.5459C22.3081 50.5459 22.7116 50.7132 23.0153 51.0163C24.3268 52.3277 26.5209 52.3277 27.8324 51.0163C28.459 50.3896 29.4787 50.3896 30.1051 51.0163C31.4166 52.3277 33.5521 52.3277 34.8636 51.0163C35.4903 50.3896 36.5099 50.3896 37.1364 51.0163C38.4479 52.3277 40.5834 52.3277 41.8949 51.0163C42.5215 50.3896 43.5412 50.3896 44.1676 51.0163C44.8234 51.6718 45.6851 51.9998 46.5469 51.9998C47.4086 51.9998 48.3289 51.6718 48.9847 51.0163C49.2887 50.7132 49.6919 50.5459 50.1211 50.5459C50.607 50.5459 51 50.1527 51 49.667C51 49.1811 50.607 48.7881 50.1211 48.7881Z" fill="#36414D"/>
<path d="M50.1211 30.8477C47.8716 30.8477 45.8621 29.6206 44.7891 27.8136V22.8789C44.7891 22.3934 44.3956 22 43.9102 22H42.1523C41.6669 22 41.2734 22.3934 41.2734 22.8789V27.8136C40.2004 29.6206 38.2495 30.8477 36 30.8477C33.7505 30.8477 31.7996 29.6206 30.7266 27.8136V22.8789C30.7266 22.3934 30.3331 22 29.8477 22H28.0898C27.6044 22 27.2109 22.3934 27.2109 22.8789V27.8136C26.1379 29.6206 24.1284 30.8477 21.8789 30.8477C21.3932 30.8477 21 31.2409 21 31.7266C21 32.2122 21.3932 32.6055 21.8789 32.6055C23.9121 32.6055 25.8083 31.8131 27.2109 30.548V36.1211H30.7266V30.548C31.4883 31.2352 32.3782 31.7684 33.3633 32.1196V36.1211H35.1211V32.5167C35.4134 32.5496 35.699 32.6055 36 32.6055C36.301 32.6055 36.5866 32.5496 36.8789 32.5167V36.1211H38.6367V32.1196C39.6218 31.7682 40.5117 31.2352 41.2734 30.548V36.1211H44.7891V30.548C46.1917 31.8131 48.0879 32.6055 50.1211 32.6055C50.607 32.6055 51 32.2122 51 31.7266C51 31.2409 50.607 30.8477 50.1211 30.8477Z" fill="#03A63C"/>
</g>
<defs>
<clipPath id="clip0">
<rect width="30" height="30" fill="white" transform="translate(21 22)"/>
</clipPath>
</defs>
</svg>
