<svg width="54" height="54" viewBox="0 0 54 54" fill="none" xmlns="http://www.w3.org/2000/svg">
<path d="M36.4922 33.6445C35.9098 33.6445 35.4375 34.1167 35.4375 34.6992V41.9766C35.4375 44.8843 33.0718 47.25 30.1641 47.25H18.7768C18.1945 47.25 17.7225 47.7218 17.7221 48.304L17.7206 50.4009L15.2033 47.8837C15.0404 47.5096 14.6674 47.25 14.2361 47.25H7.38281C4.47504 47.25 2.10938 44.8843 2.10938 41.9766V25.7344C2.10938 22.8266 4.47504 20.4609 7.38281 20.4609H18.0352C18.6176 20.4609 19.0898 19.9888 19.0898 19.4062C19.0898 18.8237 18.6176 18.3516 18.0352 18.3516H7.38281C3.31193 18.3516 0 21.6635 0 25.7344V41.9766C0 46.0474 3.31193 49.3594 7.38281 49.3594H13.696L18.0277 53.6911C18.2294 53.8928 18.4991 54 18.7736 54C18.9094 54 19.0464 53.9737 19.1766 53.9198C19.5708 53.7568 19.8278 53.3725 19.8281 52.946L19.8307 49.3594H30.1641C34.2349 49.3594 37.5469 46.0474 37.5469 41.9766V34.6992C37.5469 34.1167 37.0746 33.6445 36.4922 33.6445Z" fill="#03A63C"/>
<path d="M38.6706 0H36.0013C27.5486 0 20.6719 6.87677 20.6719 15.3295C20.6719 23.7821 27.5486 30.6588 36.0012 30.6588H38.6705C39.9898 30.6588 41.2957 30.4912 42.5613 30.1601L46.5044 34.101C46.7062 34.3025 46.9758 34.4097 47.2502 34.4097C47.3862 34.4097 47.5233 34.3834 47.6537 34.3293C48.0478 34.1661 48.3047 33.7815 48.3047 33.355V27.253C49.9742 25.901 51.361 24.1932 52.3342 22.2852C53.4396 20.1183 54 17.778 54 15.3295C54 6.87677 47.1232 0 38.6706 0ZM46.6154 25.8963C46.351 26.0955 46.1953 26.4075 46.1953 26.7388V30.8098L43.6144 28.2303C43.4136 28.0297 43.1442 27.9216 42.8687 27.9216C42.7654 27.9216 42.6609 27.9369 42.5591 27.9682C41.3037 28.354 39.9954 28.5495 38.6706 28.5495H36.0013C28.7117 28.5495 22.7812 22.619 22.7812 15.3295C22.7812 8.03988 28.7118 2.10937 36.0013 2.10937H38.6706C45.9602 2.10937 51.8906 8.03988 51.8906 15.3295C51.8906 19.5198 49.9679 23.3713 46.6154 25.8963Z" fill="#03A63C"/>
<path d="M42.0856 11.5402C41.9334 9.33219 40.1535 7.5523 37.9454 7.40011C36.6937 7.31416 35.4992 7.73635 34.5849 8.58991C33.6831 9.43165 33.166 10.6216 33.166 11.8546C33.166 12.4371 33.6383 12.9093 34.2207 12.9093C34.8031 12.9093 35.2754 12.4371 35.2754 11.8546C35.2754 11.1945 35.5414 10.5826 36.0242 10.132C36.5066 9.68172 37.1371 9.45886 37.8005 9.50464C38.9636 9.58479 39.9011 10.5223 39.9813 11.6853C40.0623 12.8599 39.2916 13.8979 38.149 14.1536C37.2232 14.3607 36.5767 15.1652 36.5767 16.1099V18.6438C36.5767 19.2263 37.049 19.6985 37.6313 19.6985C38.2139 19.6985 38.686 19.2263 38.6859 18.6438V16.1942C40.8111 15.6808 42.237 13.7361 42.0856 11.5402Z" fill="#03A63C"/>
<path d="M38.3765 22.0703C38.1804 21.8741 37.9082 21.7612 37.6309 21.7612C37.3535 21.7612 37.0814 21.8741 36.8852 22.0703C36.689 22.2664 36.5762 22.5385 36.5762 22.8159C36.5762 23.0944 36.6891 23.3665 36.8852 23.5626C37.0814 23.7588 37.3535 23.8706 37.6309 23.8706C37.9082 23.8706 38.1804 23.7588 38.3765 23.5626C38.5727 23.3654 38.6855 23.0944 38.6855 22.8159C38.6855 22.5385 38.5726 22.2664 38.3765 22.0703Z" fill="#03A63C"/>
<path d="M29.0039 32.6953H6.75C6.1676 32.6953 5.69531 33.1675 5.69531 33.75C5.69531 34.3325 6.1676 34.8047 6.75 34.8047H29.0039C29.5864 34.8047 30.0586 34.3325 30.0586 33.75C30.0586 33.1675 29.5863 32.6953 29.0039 32.6953Z" fill="#03A63C"/>
<path d="M29.7495 38.9106C29.5534 38.7144 29.2813 38.6016 29.0039 38.6016C28.7265 38.6016 28.4544 38.7144 28.2582 38.9106C28.062 39.1068 27.9492 39.3789 27.9492 39.6562C27.9492 39.9336 28.0621 40.2057 28.2582 40.4019C28.4544 40.5981 28.7265 40.7109 29.0039 40.7109C29.2813 40.7109 29.5534 40.5981 29.7495 40.4019C29.9457 40.2057 30.0586 39.9347 30.0586 39.6562C30.0586 39.3789 29.9456 39.1068 29.7495 38.9106Z" fill="#03A63C"/>
<path d="M24.8555 38.6016H6.75C6.1676 38.6016 5.69531 39.0737 5.69531 39.6562C5.69531 40.2388 6.1676 40.7109 6.75 40.7109H24.8555C25.438 40.7109 25.9102 40.2388 25.9102 39.6562C25.9102 39.0737 25.4379 38.6016 24.8555 38.6016Z" fill="#03A63C"/>
<path d="M22.1484 26.7891H6.75C6.1676 26.7891 5.69531 27.2612 5.69531 27.8438C5.69531 28.4263 6.1676 28.8984 6.75 28.8984H22.1484C22.7309 28.8984 23.2031 28.4263 23.2031 27.8438C23.2031 27.2612 22.7308 26.7891 22.1484 26.7891Z" fill="#03A63C"/>
</svg>
